<svg width="20" height="20" viewBox="0 0 20 20" fill="none" xmlns="http://www.w3.org/2000/svg">
<g clip-path="url(#clip0_139_6532)">
<g clip-path="url(#clip1_139_6532)">
<path d="M0.269455 13.7616H10.11V15.5697H16.2615V13.7655H18.7054C18.8637 15.9158 18.8761 17.8304 16.6707 19.2897C16.6437 19.3075 16.6221 19.3318 16.5623 19.385C16.8335 19.6103 17.1009 19.8329 17.3655 20.0529C17.0082 20.3945 16.7212 20.669 16.3922 20.9842C16.1019 20.6848 15.7879 20.3373 15.4458 20.0207C15.3453 19.9275 15.1673 19.8894 15.0215 19.8802C14.7831 19.8657 14.5414 19.9045 14.301 19.9052C11.1057 19.9071 7.91048 19.9065 4.71457 19.9065C4.56154 19.9065 4.398 19.936 4.25679 19.8933C3.83054 19.7653 3.55994 19.9629 3.30642 20.2684C3.09034 20.5284 2.84405 20.7629 2.61877 21.0007C2.31468 20.6808 2.03949 20.3918 1.73474 20.0707C1.939 19.89 2.19843 19.6602 2.49004 19.4014C2.28906 19.2576 2.13866 19.1577 1.99614 19.0474C0.928209 18.2244 0.350896 17.1329 0.275366 15.7924C0.23793 15.1284 0.268798 14.4604 0.268798 13.7616H0.269455Z" fill="white"/>
<path d="M0.275543 8.78712C0.270288 8.66825 0.261093 8.56119 0.261093 8.45413C0.260437 6.71366 0.258466 4.97384 0.261093 3.23336C0.26372 1.32081 1.59108 -0.0137781 3.50101 1.43622e-05C4.14203 0.00461185 4.80275 -0.00852383 5.41882 0.136625C6.5117 0.394741 7.20001 1.15267 7.53235 2.2206C7.59671 2.42814 7.68012 2.52863 7.90803 2.59037C9.19401 2.93912 10.0964 4.14104 10.1128 5.48219C10.1155 5.69827 10.1128 5.91435 10.1128 6.14882H4.02578C3.73548 4.61392 4.56959 3.02976 6.31335 2.5352C6.15573 1.85017 5.48121 1.2722 4.7732 1.24725C4.23792 1.2282 3.70067 1.22623 3.16539 1.24725C2.24261 1.28337 1.50044 2.13062 1.4965 3.14666C1.48994 4.89765 1.49453 6.64929 1.49453 8.40028C1.49453 8.51981 1.49453 8.63935 1.49453 8.78647H0.274229L0.275543 8.78712Z" fill="white"/>
<path d="M10.0931 12.5327C9.96436 12.5327 9.86781 12.5327 9.77126 12.5327C6.64366 12.5327 3.5154 12.5334 0.387794 12.5321C-0.285409 12.5321 -0.769459 12.2135 -0.939566 11.6697C-1.19571 10.8514 -0.615771 10.0632 0.268259 10.0514C1.20877 10.0389 2.14929 10.0481 3.0898 10.0481C5.29922 10.0481 7.50799 10.0481 9.71741 10.0481C9.83563 10.0481 9.95385 10.0481 10.0931 10.0481V12.5321V12.5327Z" fill="white"/>
<path d="M15.0237 14.3711H11.3634C11.3575 14.2555 11.3477 14.1504 11.3477 14.0453C11.3464 12.7771 11.3464 11.5082 11.3477 10.2399C11.3483 9.32239 11.8494 8.81798 12.763 8.81404C13.1019 8.81272 13.4408 8.8055 13.7797 8.81601C14.5409 8.84031 15.0381 9.35194 15.0401 10.1151C15.044 11.4385 15.0414 12.7613 15.0401 14.0847C15.0401 14.1708 15.0309 14.2561 15.0237 14.3711Z" fill="white"/>
<path d="M16.2832 12.5209V10.0481C16.8782 10.0481 17.4648 10.0462 18.0506 10.0488C18.356 10.0501 18.668 10.0251 18.9668 10.0744C19.619 10.1821 20.0433 10.7161 20.0164 11.3394C19.9901 11.9508 19.5389 12.4756 18.8985 12.5091C18.0394 12.5544 17.1764 12.5203 16.2839 12.5203L16.2832 12.5209Z" fill="white"/>
</g>
</g>
<defs>
<clipPath id="clip0_139_6532">
<rect width="20" height="20" fill="white"/>
</clipPath>
<clipPath id="clip1_139_6532">
<rect width="21.0171" height="21" fill="white" transform="translate(-1)"/>
</clipPath>
</defs>
</svg>
