<svg width="18" height="17" viewBox="0 0 18 17" fill="none" xmlns="http://www.w3.org/2000/svg">
<path d="M7.91008 0.459553C8.30366 -0.153209 9.19928 -0.153208 9.59286 0.459555L11.9501 4.12947C12.0855 4.3403 12.2951 4.49261 12.5375 4.55625L16.7562 5.66402C17.4606 5.84898 17.7373 6.70077 17.2762 7.26444L14.5143 10.6403C14.3556 10.8343 14.2756 11.0807 14.2899 11.3309L14.54 15.6854C14.5818 16.4125 13.8572 16.9389 13.1786 16.6745L9.11451 15.091C8.88103 15.0001 8.6219 15.0001 8.38842 15.091L4.32428 16.6745C3.6457 16.9389 2.92113 16.4125 2.96289 15.6854L3.213 11.3309C3.22736 11.0807 3.14729 10.8343 2.98862 10.6403L0.226739 7.26443C-0.234411 6.70076 0.0423532 5.84898 0.746748 5.66402L4.96546 4.55625C5.20782 4.49261 5.41746 4.3403 5.55288 4.12947L7.91008 0.459553Z" fill="#FFE600"/>
</svg>
